<svg width="1200" height="760" viewBox="0 0 1200 760" fill="none" xmlns="http://www.w3.org/2000/svg" role="img" aria-labelledby="title desc">
  <title id="title">Portfolio screenshot preview</title>
  <desc id="desc">Preview of Stephen Kamande's Week 03 portfolio homepage.</desc>
  <rect width="1200" height="760" fill="#F7F8F5"/>
  <rect x="74" y="56" width="1052" height="82" rx="12" fill="#FFFFFF" stroke="#D9E0DC"/>
  <rect x="116" y="86" width="210" height="22" rx="6" fill="#1D2523"/>
  <rect x="720" y="82" width="88" height="30" rx="6" fill="#E7F3F1"/>
  <rect x="826" y="82" width="88" height="30" rx="6" fill="#F2F5F3"/>
  <rect x="932" y="82" width="88" height="30" rx="6" fill="#F2F5F3"/>
  <rect x="1040" y="82" width="44" height="30" rx="6" fill="#F2F5F3"/>
  <rect x="96" y="210" width="456" height="30" rx="8" fill="#D97706"/>
  <rect x="96" y="270" width="548" height="70" rx="12" fill="#1D2523"/>
  <rect x="96" y="360" width="500" height="26" rx="8" fill="#5F6F69"/>
  <rect x="96" y="404" width="426" height="26" rx="8" fill="#5F6F69"/>
  <rect x="96" y="486" width="152" height="48" rx="8" fill="#0F766E"/>
  <rect x="266" y="486" width="142" height="48" rx="8" fill="#FFFFFF" stroke="#D9E0DC"/>
  <rect x="704" y="204" width="356" height="300" rx="18" fill="#FFFFFF" stroke="#D9E0DC"/>
  <rect x="746" y="248" width="206" height="36" rx="8" fill="#0F766E"/>
  <rect x="746" y="318" width="272" height="32" rx="8" fill="#F2F5F3"/>
  <rect x="746" y="374" width="128" height="32" rx="8" fill="#F2F5F3"/>
  <rect x="900" y="374" width="118" height="32" rx="8" fill="#F2F5F3"/>
  <rect x="746" y="436" width="272" height="32" rx="8" fill="#1D2523"/>
  <rect x="96" y="618" width="308" height="74" rx="12" fill="#FFFFFF" stroke="#D9E0DC"/>
  <rect x="446" y="618" width="308" height="74" rx="12" fill="#FFFFFF" stroke="#D9E0DC"/>
  <rect x="796" y="618" width="308" height="74" rx="12" fill="#FFFFFF" stroke="#D9E0DC"/>
</svg>
